<?xml version="1.0" standalone="no"?>
<!DOCTYPE svg PUBLIC "-//W3C//DTD SVG 20010904//EN"
 "http://www.w3.org/TR/2001/REC-SVG-20010904/DTD/svg10.dtd">
<svg version="1.0" xmlns="http://www.w3.org/2000/svg"
 width="720.000000pt" height="904.000000pt" viewBox="0 0 720.000000 904.000000"
 preserveAspectRatio="xMidYMid meet">

<g transform="translate(0.000000,904.000000) scale(0.100000,-0.100000)"
fill="#000000" stroke="none">
<path d="M3455 8921 c-47 -20 -60 -49 -64 -142 -3 -81 -1 -93 20 -124 28 -40
41 -45 136 -45 61 0 74 -3 83 -19 15 -29 13 -146 -3 -160 -9 -7 -110 -10 -312
-10 -163 0 -300 -3 -303 -6 -3 -3 -14 -5 -24 -5 -37 0 -58 -57 -58 -156 0 -85
2 -92 28 -122 l29 -32 314 0 c232 0 318 -3 327 -12 14 -14 16 -106 3 -127 -8
-12 -50 -15 -225 -16 l-216 -1 -25 -25 c-22 -22 -25 -35 -29 -119 -5 -88 -3
-98 20 -132 l24 -38 220 0 c207 0 220 -1 230 -19 6 -13 10 -159 10 -406 0
-247 -4 -393 -10 -406 -10 -18 -24 -19 -284 -19 -338 0 -316 11 -316 -162 0
-163 -20 -153 323 -153 227 0 269 -2 277 -15 14 -21 13 -896 0 -921 -10 -18
-23 -19 -179 -19 -162 0 -168 -1 -189 -23 -20 -21 -22 -34 -22 -128 0 -102 1
-106 28 -132 l28 -27 160 0 c111 0 164 -4 172 -12 17 -17 17 -459 0 -476 -9
-9 -127 -12 -471 -12 -318 0 -465 -3 -480 -11 -48 -25 -57 -47 -57 -158 l0
-104 32 -29 32 -28 462 0 c254 0 469 -3 478 -6 14 -5 16 -44 16 -338 0 -182
-3 -341 -6 -354 -6 -20 -13 -22 -78 -23 -95 -1 -117 -9 -139 -47 -24 -42 -29
-166 -7 -208 30 -57 43 -63 137 -66 l88 -3 3 -634 c1 -460 -1 -638 -9 -647 -9
-12 -100 -14 -498 -14 -549 -1 -572 -3 -603 -61 -15 -27 -19 -51 -16 -121 3
-80 5 -89 32 -117 l30 -31 523 0 c506 0 523 -1 533 -19 11 -22 13 -186 2 -214
-7 -15 -26 -17 -180 -20 -217 -3 -211 2 -212 -158 0 -102 1 -106 28 -132 l28
-27 166 0 c142 0 167 -2 172 -16 3 -9 6 -209 6 -444 0 -332 3 -431 12 -437 15
-9 69 -5 83 7 6 4 28 10 50 13 47 6 123 26 147 38 10 5 26 9 36 9 10 0 27 7
38 15 10 8 27 15 37 15 9 0 25 4 35 10 9 5 35 17 57 26 92 39 171 80 230 119
16 11 37 25 47 30 83 49 539 489 693 670 33 39 66 76 73 84 66 69 378 452 407
500 6 9 22 32 38 52 15 20 27 42 27 48 0 6 4 11 8 11 6 0 50 87 103 205 14 31
60 158 66 180 2 11 8 29 13 40 5 11 13 40 20 65 6 25 15 59 20 75 23 75 42
154 50 195 8 48 26 126 41 176 5 17 9 43 9 59 0 16 7 55 16 86 9 32 14 65 11
74 -8 18 -81 21 -124 4 -15 -6 -55 -14 -88 -19 -105 -16 -177 -30 -196 -40
-10 -6 -31 -10 -48 -10 -16 0 -32 -4 -36 -9 -3 -5 -19 -12 -35 -16 -88 -19
-183 -88 -236 -170 -10 -17 -21 -32 -25 -35 -14 -11 -89 -141 -89 -155 0 -7
-4 -16 -9 -20 -10 -5 -46 -76 -54 -105 -3 -9 -8 -4 -12 14 -5 19 -2 52 8 92
10 34 17 76 17 93 0 16 5 33 10 36 6 3 10 16 10 28 0 28 26 106 60 182 33 71
83 121 165 166 33 17 80 42 104 55 24 13 51 24 60 24 10 0 21 4 27 9 11 11
146 60 187 68 15 3 30 9 33 14 3 5 15 9 27 9 12 0 35 7 51 15 15 8 35 15 42
15 13 0 129 34 209 62 17 6 48 14 70 18 22 5 65 16 95 25 30 9 69 20 85 25
168 46 242 88 300 168 54 75 78 115 115 192 17 36 36 74 42 84 17 31 60 149
65 179 3 15 9 30 14 33 5 3 9 14 9 26 0 11 6 34 14 51 8 18 17 43 20 57 2 14
12 54 21 90 9 36 20 90 25 122 4 31 11 62 16 69 8 14 17 91 34 314 17 218 1
353 -50 426 -27 36 -153 129 -176 129 -11 0 -45 -24 -76 -53 -32 -28 -76 -68
-98 -87 -23 -19 -51 -43 -63 -54 -12 -10 -51 -42 -87 -71 -36 -28 -70 -58 -77
-66 -17 -20 -43 -142 -43 -199 0 -27 -7 -75 -15 -107 -8 -31 -15 -76 -15 -100
0 -23 -4 -45 -10 -48 -5 -3 -10 -25 -10 -49 0 -24 -7 -65 -15 -92 -8 -27 -15
-65 -15 -85 0 -19 -7 -44 -15 -55 -8 -10 -15 -28 -16 -39 -4 -59 -17 55 -18
164 0 68 -5 162 -11 210 -5 47 -15 131 -21 186 -14 125 -24 196 -32 215 -3 8
-11 35 -17 59 -15 56 -86 133 -198 212 -45 33 -86 59 -90 59 -5 0 -19 11 -32
25 -13 14 -29 25 -35 25 -19 0 -153 137 -169 173 -20 42 -38 208 -31 277 3 30
8 91 11 135 7 125 49 371 66 390 10 11 8 21 19 -110 27 -323 44 -432 85 -550
8 -23 14 -47 14 -56 0 -8 22 -40 49 -70 45 -50 76 -72 176 -121 22 -11 48 -24
57 -29 10 -5 27 -9 37 -9 11 0 22 -4 25 -9 7 -11 88 -37 142 -46 l41 -6 -4
228 c-2 125 -9 269 -14 318 -6 50 -13 146 -15 215 -3 69 -10 141 -15 160 -5
19 -9 69 -9 110 -1 41 -6 95 -11 120 -6 25 -15 83 -19 130 -4 47 -15 132 -25
190 -9 58 -20 130 -24 160 -3 30 -10 60 -13 66 -4 6 -12 37 -18 70 -6 32 -15
79 -19 104 -5 25 -13 59 -19 75 -6 17 -19 57 -28 90 -9 33 -20 64 -25 70 -5 5
-9 15 -9 22 0 7 -18 50 -40 96 -63 130 -164 221 -443 397 -70 44 -130 80 -134
80 -3 0 -20 11 -37 24 -17 13 -41 26 -53 30 -13 4 -23 12 -23 17 0 5 -7 9 -15
9 -9 0 -26 6 -38 14 -29 20 -160 91 -222 122 -27 13 -57 28 -65 33 -19 11 -79
42 -105 54 -11 6 -27 14 -35 18 -8 5 -31 16 -50 25 -34 16 -132 64 -168 83 -9
5 -42 21 -72 34 -30 14 -107 50 -170 80 -63 30 -137 65 -165 77 -50 23 -133
61 -235 107 -30 14 -68 31 -85 38 -16 7 -55 24 -85 38 -30 13 -71 32 -92 41
-39 17 -186 22 -223 7z m2262 -4303 c-3 -46 -9 -103 -14 -128 -25 -119 -90
-269 -158 -365 -60 -84 -187 -194 -255 -221 -96 -38 -134 -51 -185 -64 -72
-18 -308 -24 -380 -10 -33 6 -85 15 -115 20 -49 8 -113 24 -205 50 -39 11 -94
30 -122 43 -13 6 -24 8 -26 6 -14 -22 -31 -88 -38 -149 -4 -41 -15 -124 -24
-185 -9 -60 -20 -153 -25 -205 -11 -139 -29 -306 -40 -376 -6 -34 -10 -101
-10 -150 -1 -49 -5 -109 -11 -134 -5 -25 -14 -115 -19 -200 -23 -388 -30 -493
-40 -557 -5 -37 -10 -122 -10 -188 -1 -66 -5 -140 -10 -165 -5 -25 -13 -103
-16 -175 -5 -77 -10 -121 -15 -110 -4 11 -8 621 -8 1356 l-1 1336 63 61 c69
69 193 154 289 200 132 63 177 82 190 82 8 0 23 7 34 15 10 8 28 15 39 15 12
0 25 4 30 9 6 4 35 16 65 26 30 10 71 23 90 30 19 7 55 18 80 25 25 7 65 18
90 26 25 7 72 20 105 29 33 9 74 20 91 25 17 6 42 10 57 10 14 0 38 5 54 11
27 11 45 15 178 37 33 6 73 15 88 21 16 6 47 11 70 12 23 0 51 4 62 9 52 23
57 16 52 -72z"/>
<path d="M2832 8819 l-33 -32 3 -111 3 -110 34 -23 c30 -20 46 -23 139 -23
140 0 176 11 196 62 18 43 21 153 7 191 -6 14 -22 37 -38 51 -27 25 -32 26
-153 26 l-126 0 -32 -31z"/>
<path d="M2183 8413 c-57 -23 -68 -46 -68 -142 0 -108 7 -132 46 -153 24 -14
55 -18 148 -18 184 0 197 12 190 184 -5 96 -18 119 -77 131 -59 12 -208 11
-239 -2z"/>
<path d="M1308 7943 c-29 -3 -44 -12 -63 -37 -22 -29 -25 -43 -25 -117 0 -74
3 -89 25 -122 l26 -37 149 0 149 0 20 26 c18 23 21 41 21 134 0 99 -2 108 -24
129 -21 20 -36 22 -132 25 -60 1 -126 1 -146 -1z"/>
<path d="M2060 7943 c-14 -3 -35 -14 -47 -25 -43 -40 -40 -220 4 -270 15 -17
45 -18 353 -18 l337 0 24 26 c22 24 24 33 24 130 0 99 -1 105 -27 130 l-26 27
-309 2 c-169 1 -319 0 -333 -2z"/>
<path d="M1432 7373 l-32 -28 -3 -107 c-2 -92 1 -109 17 -127 27 -29 77 -41
179 -41 122 0 159 13 180 64 22 53 22 155 1 199 -27 57 -56 67 -191 67 -115 0
-120 -1 -151 -27z"/>
<path d="M2137 7376 c-36 -29 -45 -70 -38 -175 10 -136 -39 -125 584 -129 287
-2 537 0 555 3 17 3 43 18 57 33 23 25 25 34 25 130 l0 103 -32 30 -32 29
-546 0 -545 -1 -28 -23z"/>
<path d="M1063 6762 c-55 -48 -56 -224 -1 -276 18 -17 37 -19 160 -20 140 -1
140 -1 163 26 46 54 41 238 -8 273 -17 12 -52 15 -158 15 -116 0 -139 -3 -156
-18z"/>
<path d="M2012 6755 c-40 -51 -39 -214 3 -263 l22 -25 329 -1 c392 0 378 -4
389 100 9 87 -2 163 -28 192 -20 22 -21 22 -358 22 l-338 0 -19 -25z"/>
<path d="M1120 6107 c-36 -31 -50 -69 -50 -138 0 -72 19 -121 56 -146 26 -17
64 -18 549 -21 571 -3 581 -2 615 53 17 27 19 47 17 125 -3 90 -4 94 -35 121
l-32 29 -548 0 -547 -1 -25 -22z"/>
<path d="M2622 6097 c-31 -32 -32 -35 -32 -124 0 -110 15 -143 71 -161 55 -17
569 -16 627 1 62 19 79 50 81 149 2 84 -8 112 -53 150 -19 16 -52 17 -342 18
l-320 0 -32 -33z"/>
<path d="M801 5484 c-18 -23 -21 -41 -21 -128 0 -99 1 -103 28 -129 28 -27 30
-27 164 -27 l136 0 31 32 c30 31 31 34 30 124 -1 86 -3 93 -29 123 l-29 31
-145 0 c-144 0 -145 0 -165 -26z"/>
<path d="M1628 5493 c-33 -38 -39 -64 -35 -149 3 -65 8 -91 24 -112 20 -27 20
-27 164 -29 193 -4 188 -7 190 147 1 112 0 115 -26 137 -24 22 -35 23 -164 23
-119 0 -140 -2 -153 -17z"/>
<path d="M2156 5481 c-26 -28 -28 -34 -29 -125 0 -93 1 -97 28 -126 l29 -30
329 0 329 0 29 31 c28 30 29 35 29 124 0 89 -1 94 -29 124 l-29 31 -329 0
-329 0 -28 -29z"/>
<path d="M579 4835 c-47 -26 -59 -56 -59 -154 0 -89 0 -90 35 -126 l35 -36
320 3 320 3 32 33 c31 31 33 37 37 117 3 72 0 89 -18 119 -12 19 -35 39 -53
45 -50 18 -616 14 -649 -4z"/>
<path d="M1850 4839 c-50 -20 -60 -45 -60 -155 l0 -102 35 -31 c36 -31 36 -31
153 -31 95 0 122 3 142 17 53 37 59 53 60 145 0 105 -17 143 -70 158 -45 13
-227 12 -260 -1z"/>
<path d="M271 4260 c-81 -9 -91 -26 -91 -160 0 -165 -63 -150 615 -150 l562 0
21 23 c20 21 22 34 22 130 0 98 -2 108 -24 134 l-24 28 -514 1 c-282 0 -537
-2 -567 -6z"/>
<path d="M1718 4251 c-38 -18 -52 -73 -45 -174 4 -64 10 -84 28 -103 l22 -24
332 0 c331 0 332 0 358 23 26 22 27 26 27 130 0 103 -1 109 -25 131 -24 22
-37 24 -168 30 -232 9 -496 3 -529 -13z"/>
<path d="M2816 4091 c-37 -40 -49 -171 -22 -236 22 -53 45 -60 192 -59 116 0
132 2 151 19 55 53 56 221 1 277 -16 16 -37 18 -161 18 -128 0 -146 -2 -161
-19z"/>
<path d="M660 3643 c-8 -3 -25 -15 -37 -26 -21 -19 -23 -29 -23 -125 l0 -105
32 -29 c31 -28 33 -28 161 -28 l129 0 35 35 35 35 -4 93 c-5 111 -20 141 -76
151 -45 7 -231 7 -252 -1z"/>
<path d="M1484 3643 c-48 -9 -59 -37 -59 -147 0 -85 3 -105 20 -128 11 -15 29
-29 40 -32 11 -3 162 -6 336 -6 l316 0 24 26 c22 24 24 33 24 135 0 165 27
154 -363 155 -174 1 -327 0 -338 -3z"/>
<path d="M2651 3643 c-49 -10 -60 -38 -61 -153 0 -112 2 -117 40 -143 20 -14
49 -17 155 -17 l131 0 32 33 c31 32 32 35 32 123 0 84 -2 92 -29 124 l-29 35
-123 2 c-68 0 -135 -1 -148 -4z"/>
<path d="M1634 3052 c-35 -28 -44 -56 -44 -144 0 -78 2 -86 29 -118 l29 -35
113 -5 c118 -5 163 2 193 33 15 15 18 35 17 130 -1 110 -1 112 -28 134 -26 21
-38 23 -158 23 -108 0 -134 -3 -151 -18z"/>
<path d="M2208 3052 c-71 -43 -63 -251 12 -289 19 -10 148 -12 577 -10 l552 2
20 22 c19 20 21 35 21 130 0 102 -1 108 -27 135 l-27 28 -550 -1 c-488 -1
-554 -3 -578 -17z"/>
<path d="M1202 2525 c-31 -33 -32 -38 -32 -124 0 -110 16 -146 73 -162 45 -12
1083 -8 1110 5 34 17 49 69 46 163 -4 94 -22 136 -64 147 -11 3 -263 6 -561 6
l-541 0 -31 -35z"/>
<path d="M2660 2549 c-14 -6 -35 -20 -47 -31 -21 -19 -23 -31 -23 -119 0 -74
4 -99 15 -109 8 -7 15 -18 15 -25 0 -27 78 -34 350 -35 151 -1 290 2 308 6 18
4 45 21 62 41 28 31 30 39 30 114 0 58 -5 89 -17 110 -33 55 -51 58 -373 58
-175 0 -305 -4 -320 -10z"/>
<path d="M1369 2017 c-54 -15 -69 -50 -69 -162 0 -91 1 -93 32 -124 l32 -31
129 0 129 0 35 35 35 35 -4 100 c-3 113 -11 126 -80 147 -50 15 -187 15 -239
0z"/>
<path d="M1982 2016 c-71 -15 -91 -48 -92 -157 0 -69 3 -80 30 -117 l30 -42
134 0 c130 0 135 1 165 26 l31 26 0 106 c-1 121 -8 138 -67 159 -45 15 -157
15 -231 -1z"/>
<path d="M1718 1433 c-33 -21 -37 -30 -45 -104 -8 -81 4 -147 32 -175 l24 -24
322 0 c410 0 389 -9 389 171 0 90 -2 97 -26 120 l-26 24 -321 2 c-287 2 -325
1 -349 -14z"/>
<path d="M2652 1443 c-52 -11 -62 -34 -62 -151 0 -106 1 -109 28 -135 28 -27
30 -27 163 -27 l136 0 31 35 c31 33 32 38 32 122 -1 82 -2 90 -30 123 l-29 35
-123 2 c-68 0 -133 -1 -146 -4z"/>
<path d="M3164 969 c-28 -29 -29 -34 -29 -123 0 -153 24 -174 190 -171 182 3
195 14 195 169 0 92 -1 95 -31 125 l-31 31 -132 0 -132 0 -30 -31z"/>
<path d="M2102 892 c-37 -34 -46 -78 -39 -175 4 -66 7 -74 38 -99 l33 -28 316
0 316 0 32 33 c32 33 32 34 32 131 l0 99 -36 33 -35 34 -314 0 -313 0 -30 -28z"/>
<path d="M3136 518 c-23 -21 -26 -31 -28 -98 -5 -188 -2 -191 175 -196 150 -4
176 5 200 74 31 89 10 204 -42 232 -11 5 -78 10 -150 10 -120 0 -132 -2 -155
-22z"/>
</g>
</svg>
